<svg xmlns="http://www.w3.org/2000/svg" xmlns:xlink="http://www.w3.org/1999/xlink" width="20" height="17"><defs><path id="a" d="M0 .408h19.498v12.387H0z"/></defs><g fill="none" fill-rule="evenodd"><g transform="translate(0 .593)"><mask id="b" fill="#fff"><use xlink:href="#a"/></mask><path fill="#F4F7FB" d="M16.86 8.108l-9 .729-1.981-4.71h11.923l-.941 3.98zm2.477-5.194a.75.75 0 00-.588-.284h-13.5L4.507.866a.747.747 0 00-.69-.458H.749a.75.75 0 000 1.498h2.57l.66 1.569a.742.742 0 00.155.367l2.53 6.018-.756 1.91a.747.747 0 00.696 1.025h10.132a.75.75 0 000-1.498h-9.03l.386-.975 9.433-.765a.75.75 0 00.669-.574l1.284-5.432a.749.749 0 00-.141-.637z" mask="url(#b)"/></g><path fill="#F4F7FB" d="M8.323 14.296a1.148 1.148 0 100 2.296 1.148 1.148 0 000-2.296m6.881 0a1.148 1.148 0 100 2.296 1.148 1.148 0 000-2.296"/></g></svg>