<svg xmlns="http://www.w3.org/2000/svg" xmlns:xlink="http://www.w3.org/1999/xlink" width="25" height="25"><defs><path id="a" d="M0 0h24.945v24.945H0z"/></defs><g fill="none" fill-rule="evenodd"><mask id="b" fill="#fff"><use xlink:href="#a"/></mask><path fill="#3BB896" fill-rule="nonzero" d="M15.635 12.478h-2.067v7.374h-3.066v-7.374H9.043V9.874h1.46V8.188c0-1.205.572-3.091 3.09-3.091l2.27.011v2.527h-1.647c-.269 0-.648.133-.648.71v1.533h2.335l-.268 2.6zM12.47.001C5.586 0 0 5.586 0 12.475c0 6.888 5.586 12.47 12.47 12.47 6.89 0 12.475-5.582 12.475-12.47C24.945 5.585 19.36 0 12.47 0z" mask="url(#b)"/></g></svg>