<svg xmlns="http://www.w3.org/2000/svg" xmlns:xlink="http://www.w3.org/1999/xlink" width="25" height="25"><defs><path id="a" d="M0 .054h24.945v24.707H0z"/></defs><g fill="none" fill-rule="evenodd"><path fill="#3BB896" fill-rule="nonzero" d="M10.983 15.09l4.257-2.78-4.257-2.782z"/><g transform="translate(0 .184)"><mask id="b" fill="#fff"><use xlink:href="#a"/></mask><path fill="#3BB896" fill-rule="nonzero" d="M19.927 15.368a2.22 2.22 0 01-2.228 2.209H7.246a2.22 2.22 0 01-2.229-2.21V9.45a2.22 2.22 0 012.23-2.21h10.452c1.23 0 2.228.99 2.228 2.21v5.919zM12.471.054C5.585.054 0 5.587 0 12.41c0 6.82 5.585 12.351 12.471 12.351 6.889 0 12.475-5.532 12.475-12.351C24.946 5.587 19.36.054 12.471.054z" mask="url(#b)"/></g></g></svg>