<svg xmlns="http://www.w3.org/2000/svg" xmlns:xlink="http://www.w3.org/1999/xlink" width="12" height="15"><defs><path id="a" d="M.014.027h7.099V10.03h-7.1z"/><path id="c" d="M.013.027h1.774v6.251H.013z"/></defs><g fill="none" fill-rule="evenodd"><g transform="translate(2.352 4.942)"><mask id="b" fill="#fff"><use xlink:href="#a"/></mask><path fill="#FFF" d="M5.042 10.03c.474 0 .887-.437.887-.938V6.904h.592c.355 0 .592-.25.592-.626V.028h-7.1v6.25c0 .375.237.626.593.626h.592v2.188c0 .5.413.937.887.937.473 0 .886-.436.886-.937V6.904h1.184v2.188c0 .5.413.937.887.937" mask="url(#b)"/></g><g transform="translate(10.044 4.942)"><mask id="d" fill="#fff"><use xlink:href="#c"/></mask><path fill="#FFF" d="M.9 6.278c.474 0 .887-.436.887-.937V.964C1.787.466 1.374.027.9.027c-.474 0-.887.44-.887.937v4.377c0 .5.413.937.887.937" mask="url(#d)"/></g><path fill="#FFF" d="M.887 11.22c.473 0 .886-.437.886-.938V5.906c0-.498-.413-.937-.886-.937-.474 0-.887.439-.887.937v4.376c0 .501.413.938.887.938m6.508-7.97a.457.457 0 01-.444-.468c0-.26.199-.47.444-.47s.443.21.443.47a.457.457 0 01-.443.468m-2.96 0a.457.457 0 01-.443-.468c0-.26.198-.47.443-.47s.444.21.444.47a.457.457 0 01-.444.468M8.755.094a.273.273 0 00-.414 0l-.794.837-.037.038A3.351 3.351 0 005.924.595h-.018A3.351 3.351 0 004.32.969L4.283.931 3.49.094a.273.273 0 00-.413 0 .312.312 0 000 .436l.768.812a3.267 3.267 0 00-.667.633 3.793 3.793 0 00-.806 2.173l-.002.025a3.828 3.828 0 00-.004.17h7.1c0-.057-.002-.113-.004-.17l-.002-.025a3.792 3.792 0 00-.806-2.173 3.265 3.265 0 00-.667-.633l.768-.811a.312.312 0 000-.437"/></g></svg>