<svg xmlns="http://www.w3.org/2000/svg" width="22" height="21"><g fill="none" fill-rule="evenodd"><path d="M14.032 12.348c-.555-.52-1.473-.52-2.04 0a1.258 1.258 0 000 1.87c.567.51 1.485.51 2.04 0a1.24 1.24 0 000-1.87M8.988 8.65c.567-.521.567-1.35 0-1.86-.555-.521-1.462-.521-2.029 0-.555.51-.555 1.339 0 1.86.567.51 1.474.51 2.03 0m4.159-2.062c-.408-.245-.94-.128-1.19.244L7.39 13.358c-.26.371-.136.86.26 1.094a.968.968 0 00.477.128c.272 0 .566-.128.725-.362l4.568-6.546c.25-.372.136-.85-.272-1.084" fill="#F4F7FB"/><path stroke="#F4F7FB" stroke-linecap="round" stroke-linejoin="round" stroke-width="1.5" d="M10.5 18.496l-3.591 1.87-1.549-3.74-3.953-.876 1.219-3.862L.16 8.677l3.416-2.175.175-4.045 4.014.53L10.5 0l2.735 2.986 4.014-.53.175 4.046 3.416 2.175-2.466 3.211 1.22 3.862-3.954.875-1.549 3.742z"/></g></svg>