<svg xmlns="http://www.w3.org/2000/svg" xmlns:xlink="http://www.w3.org/1999/xlink" width="25" height="25"><defs><path id="a" d="M0 0h24.945v24.945H0z"/></defs><g fill="none" fill-rule="evenodd"><mask id="b" fill="#fff"><use xlink:href="#a"/></mask><path fill="#3BB896" fill-rule="nonzero" d="M18.596 9.332c.004.134.008.271.008.41 0 4.174-3.179 8.988-8.99 8.988a8.937 8.937 0 01-4.84-1.423A6.349 6.349 0 009.453 16 3.16 3.16 0 016.5 13.807c.193.035.388.058.594.058.286 0 .565-.04.833-.113a3.16 3.16 0 01-2.534-3.095v-.044c.422.24.912.382 1.43.4a3.164 3.164 0 01-.978-4.218 8.951 8.951 0 006.509 3.297 3.16 3.16 0 015.383-2.881 6.343 6.343 0 002.01-.764 3.184 3.184 0 01-1.39 1.745 6.238 6.238 0 001.813-.496 6.45 6.45 0 01-1.575 1.636M12.471 0C5.586 0 0 5.582 0 12.47c0 6.89 5.586 12.476 12.471 12.476 6.888 0 12.474-5.586 12.474-12.475C24.945 5.582 19.359 0 12.471 0" mask="url(#b)"/></g></svg>