<svg xmlns="http://www.w3.org/2000/svg" xmlns:xlink="http://www.w3.org/1999/xlink" width="25" height="25"><defs><path id="a" d="M.001.054h24.944v24.708H.001z"/></defs><g fill="none" fill-rule="evenodd"><path fill="#60B89E" d="M12.475 10.084c-1.398 0-2.541 1.133-2.545 2.513 0 1.38 1.147 2.517 2.541 2.517 1.39.004 2.537-1.133 2.541-2.513 0-1.38-1.147-2.517-2.537-2.517"/><path fill="#3BB896" fill-rule="nonzero" d="M16.54 9.482c-.506-.004-.926-.42-.919-.919a.907.907 0 01.911-.899c.521-.004.923.386.923.899 0 .51-.413.922-.915.919m-4.073 6.995a3.878 3.878 0 01-3.91-3.916c0-2.13 1.759-3.84 3.95-3.84a3.883 3.883 0 013.882 3.88c0 2.155-1.747 3.876-3.922 3.876m6.244-5.787a21.264 21.264 0 00-.094-1.717c-.129-1.277-.897-2.156-2.167-2.396-.666-.125-1.361-.143-2.043-.157a122.67 122.67 0 00-3.877 0c-.644.01-1.291.032-1.929.132-1.1.169-1.854.796-2.158 1.879a4.51 4.51 0 00-.166 1.072c-.032 1.37-.051 2.736-.047 4.102.003.871.022 1.747.097 2.61.117 1.298.917 2.183 2.205 2.417.663.118 1.351.133 2.028.147 1.274.02 2.552.014 3.826 0a20.128 20.128 0 001.749-.097c.542-.05 1.053-.225 1.487-.57.71-.56.984-1.327 1.025-2.18.056-1.151.068-2.301.102-3.453-.012 0-.023 0-.034-.004 0-.595.011-1.19-.004-1.785"/><g transform="translate(0 .184)"><mask id="b" fill="#fff"><use xlink:href="#a"/></mask><path fill="#3BB896" fill-rule="nonzero" d="M20.08 14.801c-.008.79-.035 1.578-.3 2.334-.51 1.471-1.549 2.36-3.074 2.65-.691.129-1.404.158-2.11.17-1.506.02-3.016.013-4.525-.004-.797-.008-1.592-.034-2.361-.295-1.484-.501-2.381-1.53-2.678-3.04-.131-.682-.16-1.391-.171-2.087a179.946 179.946 0 010-4.5c.011-.79.036-1.578.3-2.338.513-1.466 1.551-2.359 3.078-2.646.688-.129 1.4-.143 2.107-.172.713-.026 1.426-.004 2.14-.004v-.022c1.024.019 2.047.03 3.069.058.891.021 1.752.18 2.522.645 1.015.613 1.634 1.517 1.833 2.665.12.684.162 1.388.174 2.086.022 1.5.015 3.002-.004 4.5M12.47.054C5.582.054.001 5.583.001 12.406c0 6.824 5.581 12.356 12.47 12.356s12.475-5.532 12.475-12.356C24.946 5.583 19.36.054 12.471.054" mask="url(#b)"/></g></g></svg>